# xmcd CD database file
#
# Track frame offsets:
#	150
#	19758
#	38704
#	58537
#
# Disc length: 1033 seconds
#
# Revision: 3
# Processed by: cddbd v1.5.2PL0 Copyright (c) Steve Scherf et al.
# Submitted via: CDex 1.70beta2
#
DISCID=28040704
DTITLE=平野綾 - MonStAR
DYEAR=2007
DGENRE=JPop
TTITLE0=MonStAR
TTITLE1=ラブソング
TTITLE2=MonStAR [off vocal]
TTITLE3=ラブソング [off vocal]
EXTD=YEAR: 2007
EXTT0=
EXTT1=
EXTT2=
EXTT3=
PLAYORDER=
